<?xml version="1.0" encoding="iso-8859-1"?>
<!-- Generator: Adobe Illustrator 19.0.0, SVG Export Plug-In . SVG Version: 6.00 Build 0)  -->
<svg version="1.1" id="Layer_1" xmlns="http://www.w3.org/2000/svg" xmlns:xlink="http://www.w3.org/1999/xlink" x="0px" y="0px"
	 viewBox="0 0 512 512" style="enable-background:new 0 0 512 512;" xml:space="preserve">
<g>
	<g>
		<path d="M374.634,474.537H159.219v-81.171h99.902c10.345,0,18.732-8.387,18.732-18.732s-8.387-18.732-18.732-18.732H140.488
			c-10.345,0-18.732,8.387-18.732,18.732v99.902H37.463V274.732h99.902c10.345,0,18.732-8.387,18.732-18.732
			s-8.387-18.732-18.732-18.732H37.463v-99.9c0-10.345-8.387-18.732-18.732-18.732S0,127.023,0,137.368v355.9
			C0,503.613,8.387,512,18.732,512h355.902c10.345,0,18.732-8.387,18.732-18.732C393.366,482.923,384.98,474.537,374.634,474.537z"
			/>
	</g>
</g>
<g>
	<g>
		<path d="M493.268,0c-6.211,0-468.34,0-474.537,0C8.387,0,0,8.387,0,18.732s8.387,18.732,18.732,18.732h99.902v99.902
			c0,10.345,8.387,18.732,18.732,18.732s18.732-8.387,18.732-18.732V37.463h199.805v99.902c0,10.345,8.387,18.732,18.732,18.732
			h99.902v81.166c-8.783,0-191.045,0-199.805,0v-93.999c0-10.345-8.387-18.732-18.732-18.732s-18.732,8.387-18.732,18.732v112.731
			c0,10.345,8.387,18.732,18.732,18.732h99.902v99.902c0,10.345,8.387,18.732,18.732,18.732s18.732-8.387,18.732-18.732v-99.902
			h81.171v218.542c0,10.345,8.387,18.732,18.732,18.732c10.345,0,18.732-8.387,18.732-18.732c0-6.196,0-468.325,0-474.537
			C512,8.387,503.613,0,493.268,0z M474.537,118.634h-81.171V37.463h81.171V118.634z"/>
	</g>
</g>
<g>
</g>
<g>
</g>
<g>
</g>
<g>
</g>
<g>
</g>
<g>
</g>
<g>
</g>
<g>
</g>
<g>
</g>
<g>
</g>
<g>
</g>
<g>
</g>
<g>
</g>
<g>
</g>
<g>
</g>
</svg>
