<?xml version="1.0" encoding="iso-8859-1"?>
<!-- Generator: Adobe Illustrator 18.0.0, SVG Export Plug-In . SVG Version: 6.00 Build 0)  -->
<!DOCTYPE svg PUBLIC "-//W3C//DTD SVG 1.1//EN" "http://www.w3.org/Graphics/SVG/1.1/DTD/svg11.dtd">
<svg version="1.1" id="Capa_1" xmlns="http://www.w3.org/2000/svg" xmlns:xlink="http://www.w3.org/1999/xlink" x="0px" y="0px"
	 viewBox="0 0 480 480" style="enable-background:new 0 0 480 480;" xml:space="preserve">
<g>
	<path d="M199.372,154.279c0-15.464-12.536-28-28-28H82.039c-15.464,0-28,12.536-28,28v27.827h145.333V154.279z"/>
	<path d="M49.54,298.913h379.664c10.56,0,19.151-8.592,19.151-19.152v-63.856c0-10.56-8.591-19.151-19.151-19.151H49.54
		c-10.561,0-19.152,8.592-19.152,19.151v63.857C30.388,290.321,38.979,298.913,49.54,298.913z"/>
	<path d="M470,148.552c-5.523,0-10,4.478-10,10v154.447H20V45.666c0-5.522-4.477-10-10-10c-5.523,0-10,4.478-10,10v388.667
		c0,5.522,4.477,10,10,10c5.523,0,10-4.478,10-10v-71.334h440v71.334c0,5.522,4.477,10,10,10c5.523,0,10-4.478,10-10V158.552
		C480,153.03,475.523,148.552,470,148.552z"/>
</g>
<g>
</g>
<g>
</g>
<g>
</g>
<g>
</g>
<g>
</g>
<g>
</g>
<g>
</g>
<g>
</g>
<g>
</g>
<g>
</g>
<g>
</g>
<g>
</g>
<g>
</g>
<g>
</g>
<g>
</g>
</svg>
