<?xml version="1.0" encoding="iso-8859-1"?>
<!-- Generator: Adobe Illustrator 18.0.0, SVG Export Plug-In . SVG Version: 6.00 Build 0)  -->
<!DOCTYPE svg PUBLIC "-//W3C//DTD SVG 1.1//EN" "http://www.w3.org/Graphics/SVG/1.1/DTD/svg11.dtd">
<svg version="1.1" id="Capa_1" xmlns="http://www.w3.org/2000/svg" xmlns:xlink="http://www.w3.org/1999/xlink" x="0px" y="0px"
	 viewBox="0 0 496.152 496.152" style="enable-background:new 0 0 496.152 496.152;" xml:space="preserve">
<g id="XMLID_22_">
	<path id="XMLID_26_" d="M392.665,280.164c3.877,5.304,7.106,10.722,8.811,16.31h-24.026c-10.624,9.102-19.742,11.843-29.151,11.843
		c-9.375,0-18.671-2.773-29.411-11.843h-63.216v-70.881c4.671,0.211,9.118,0.924,13.69,1.346
		c-16.336-29.572-37.1-72.869-43.62-101.144c-0.228-0.974-0.309-1.947-0.519-2.92c-95.435,8.401-170.544,88.66-170.544,186.221
		c0,103.139,83.917,187.057,187.073,187.057c103.141,0,187.04-83.918,187.04-187.057c0,0,0,0,0-0.009c0,0,0-0.007,0-0.016
		c0-22.897-4.349-44.757-11.905-65.051C407.786,259.302,399.836,271.103,392.665,280.164z M173.116,162.765
		c-10.413,14.284-19.158,31.844-25.857,51.829c-20.001,6.708-37.57,15.468-51.86,25.897
		C111.456,206.385,139.018,178.823,173.116,162.765z M139.163,244.815c-3.372,16.238-5.481,33.539-6.162,51.658H82.079
		C88.341,276.027,109.283,257.736,139.163,244.815z M82.079,321.716h50.922c0.681,18.112,2.79,35.413,6.162,51.651
		C109.298,360.446,88.356,342.164,82.079,321.716z M95.398,377.69c14.275,10.439,31.859,19.198,51.844,25.906
		c6.716,19.985,15.461,37.547,25.874,51.829C139.018,439.366,111.456,411.805,95.398,377.69z M230.43,469.175
		c-20.977-5.752-39.761-26.978-52.95-57.483c16.628,3.455,34.358,5.572,52.95,6.189V469.175z M230.43,392.655
		c-22.387-0.852-43.669-4.137-62.811-9.417c-5.193-18.785-8.47-39.615-9.396-61.523h72.206V392.655z M230.43,296.474h-72.206
		c0.926-21.916,4.202-42.744,9.396-61.529c19.142-5.28,40.424-8.565,62.811-9.417V296.474z M230.43,200.303
		c-18.592,0.623-36.322,2.741-52.95,6.188c13.189-30.498,31.991-51.725,52.95-57.475V200.303z M255.671,321.716h69.608
		c-0.924,21.948-4.218,42.818-9.409,61.628c-18.639,5.125-38.964,8.29-60.199,9.246V321.716z M255.671,469.175v-51.352
		c17.406-0.73,34.309-2.838,50.385-6.195C293.403,440.899,275.607,462.418,255.671,469.175z M310.388,455.419
		c10.447-14.325,19.222-31.941,25.923-51.992c12.49-4.21,24.268-9.182,34.895-15.063c6.212-3.439,11.776-7.154,17.03-10.998
		C372.21,411.628,344.6,439.301,310.388,455.419z M358.988,366.277c-4.64,2.563-9.57,4.9-14.648,7.114
		c3.375-16.247,5.482-33.547,6.165-51.676h50.952C396.445,338.101,381.91,353.601,358.988,366.277z"/>
	<path id="XMLID_23_" d="M348.298,0c-66.51,0-104.259,57.354-90.192,118.324c10.024,43.418,70.531,156.769,90.192,156.769
		c18.381,0,80.024-113.384,90.194-156.769C452.672,57.953,415.23,0,348.298,0z M349.352,116.832
		c-19.497,0-35.297-15.801-35.297-35.3s15.8-35.299,35.297-35.299c19.501,0,35.299,15.8,35.299,35.299
		S368.853,116.832,349.352,116.832z"/>
</g>
<g>
</g>
<g>
</g>
<g>
</g>
<g>
</g>
<g>
</g>
<g>
</g>
<g>
</g>
<g>
</g>
<g>
</g>
<g>
</g>
<g>
</g>
<g>
</g>
<g>
</g>
<g>
</g>
<g>
</g>
</svg>
