<?xml version="1.0" encoding="iso-8859-1"?>
<!-- Generator: Adobe Illustrator 19.0.0, SVG Export Plug-In . SVG Version: 6.00 Build 0)  -->
<svg version="1.1" id="Layer_1" xmlns="http://www.w3.org/2000/svg" xmlns:xlink="http://www.w3.org/1999/xlink" x="0px" y="0px"
	 viewBox="0 0 496 496" style="enable-background:new 0 0 496 496;" xml:space="preserve">
<g>
	<g>
		<g>
			<polygon points="408,32 408,48 460.688,48 442.344,66.344 453.656,77.656 491.312,40 453.656,2.344 442.344,13.656 460.688,32 
							"/>
			<polygon points="45.656,418.344 34.344,429.656 52.688,448 0,448 0,464 52.688,464 34.344,482.344 45.656,493.656 83.312,456 			
				"/>
			<polygon points="240,416 288,416 288,400 256,400 256,320 240,320 			"/>
			<rect x="240" y="240" width="16" height="16"/>
			<path d="M65.584,416H176v-96h-16v80H72.776C36.136,357.808,16,303.968,16,248c0-25.128,4.072-49.32,11.496-72H96v-16H33.384
				C56.944,102.752,102.752,56.944,160,33.384V96h16V27.496C198.68,20.072,222.872,16,248,16h160V0H248C111.256,0,0,111.248,0,248
				c0,61.104,22.448,119.816,63.2,165.336L65.584,416z"/>
			<path d="M480,160.376V160h-0.136c-10.712-28.2-26.568-54.44-47.064-77.336L430.416,80H240v16h80v64H160v80H80v96h16v-80h64h8h8
				v-80h160V96h87.224c16.68,19.216,29.904,40.856,39.4,64H400v80h-72h-8h-48v16h48v80h96v-16h-80v-64h80v-80h52.544
				C476.072,199.04,480,223.312,480,248c0,96.784-59.592,179.88-144,214.616V400h-32v16h16v52.504
				C297.32,475.928,273.128,480,248,480H80v16h168c136.744,0,248-111.248,248-248C496,217.768,490.488,188.128,480,160.376z"/>
		</g>
	</g>
</g>
<g>
</g>
<g>
</g>
<g>
</g>
<g>
</g>
<g>
</g>
<g>
</g>
<g>
</g>
<g>
</g>
<g>
</g>
<g>
</g>
<g>
</g>
<g>
</g>
<g>
</g>
<g>
</g>
<g>
</g>
</svg>
