<?xml version="1.0" encoding="iso-8859-1"?>
<!-- Generator: Adobe Illustrator 19.1.0, SVG Export Plug-In . SVG Version: 6.00 Build 0)  -->
<svg version="1.1" id="Capa_1" xmlns="http://www.w3.org/2000/svg" xmlns:xlink="http://www.w3.org/1999/xlink" x="0px" y="0px"
	 viewBox="0 0 237.522 237.522" style="enable-background:new 0 0 237.522 237.522;" xml:space="preserve">
<g>
	<g>
		<g>
			<path style="fill:#010002;" d="M109.018,202.995c2.521,22.52-3.253,31.587-18.993,34.196
				c-15.73,2.648-31.04-10.855-34.244-30.112c-1.475-8.852-4.367-25.95-6.165-33.815c-2.853-12.535-10.474-28.851-13.434-38.494
				c-0.674-2.208-8.383-17.997-10.171-26.712c-2.941-14.157,6.155-28.001,20.293-30.971l24.728-5.12
				c3.713-0.791,14.753-1.553,14.753-1.553c15.183-0.098,22.569,7.718,22.647,22.911c0.039,8.783-7.943,22.041-14.128,23.019
				c-6.204,0.977-8.93,0.283-13.131,0.303c-6.038,0.029-9.037,9.047-9.721,13.971c-0.371,2.657-0.459,15.095,7.347,30.893
				C86.615,177.28,105.657,172.903,109.018,202.995z M90.611,66.476c6.282-0.029,11.353-7.533,11.304-16.746
				s-5.178-16.668-11.46-16.629c-6.302,0.039-11.363,7.533-11.304,16.746C79.19,59.051,84.319,66.506,90.611,66.476z M53.358,69.026
				c3.752-0.899,5.696-6.038,4.377-11.48c-1.339-5.422-5.393-9.116-9.116-8.236c-3.732,0.909-5.676,6.048-4.367,11.47
				C45.581,66.232,49.625,69.935,53.358,69.026z M69.791,64.894c4.475-0.635,7.269-6.429,6.292-12.926
				c-0.967-6.468-5.335-11.167-9.76-10.542c-4.426,0.684-7.249,6.468-6.272,12.945C61.037,60.839,65.375,65.538,69.791,64.894z
				 M27.887,75.748c-1.446-3.634-4.621-5.755-7.083-4.768c-2.511,0.997-3.332,4.739-1.876,8.353c1.456,3.615,4.66,5.725,7.122,4.748
				C28.522,83.086,29.362,79.353,27.887,75.748z M38.478,75.738c3.126-1.251,4.172-6.009,2.325-10.581
				c-1.847-4.612-5.901-7.318-8.998-6.038c-3.166,1.241-4.191,6.009-2.374,10.581C31.287,74.302,35.322,76.989,38.478,75.738z
				 M109.018,202.995c2.521,22.52-3.253,31.587-18.993,34.196c-15.73,2.648-31.04-10.855-34.244-30.112
				c-1.475-8.852-4.367-25.95-6.165-33.815c-2.853-12.535-10.474-28.851-13.434-38.494c-0.674-2.208-8.383-17.997-10.171-26.712
				c-2.941-14.157,6.155-28.001,20.293-30.971l24.728-5.12c3.713-0.791,14.753-1.553,14.753-1.553
				c15.183-0.098,22.569,7.718,22.647,22.911c0.039,8.783-7.943,22.041-14.128,23.019c-6.204,0.977-8.93,0.283-13.131,0.303
				c-6.038,0.029-9.037,9.047-9.721,13.971c-0.371,2.657-0.459,15.095,7.347,30.893C86.615,177.28,105.657,172.903,109.018,202.995z
				 M90.611,66.476c6.282-0.029,11.353-7.533,11.304-16.746s-5.178-16.668-11.46-16.629c-6.302,0.039-11.363,7.533-11.304,16.746
				C79.19,59.051,84.319,66.506,90.611,66.476z M53.358,69.026c3.752-0.899,5.696-6.038,4.377-11.48
				c-1.339-5.422-5.393-9.116-9.116-8.236c-3.732,0.909-5.676,6.048-4.367,11.47C45.581,66.232,49.625,69.935,53.358,69.026z
				 M69.791,64.894c4.475-0.635,7.269-6.429,6.292-12.926c-0.967-6.468-5.335-11.167-9.76-10.542
				c-4.426,0.684-7.249,6.468-6.272,12.945C61.037,60.839,65.375,65.538,69.791,64.894z M27.887,75.748
				c-1.446-3.634-4.621-5.755-7.083-4.768c-2.511,0.997-3.332,4.739-1.876,8.353c1.456,3.615,4.66,5.725,7.122,4.748
				C28.522,83.086,29.362,79.353,27.887,75.748z M38.478,75.738c3.126-1.251,4.172-6.009,2.325-10.581
				c-1.847-4.612-5.901-7.318-8.998-6.038c-3.166,1.241-4.191,6.009-2.374,10.581C31.287,74.302,35.322,76.989,38.478,75.738z
				 M158.739,128.429c7.816-15.808,7.728-28.246,7.347-30.903c-0.674-4.924-3.674-13.952-9.712-13.981
				c-4.211-0.02-6.927,0.674-13.141-0.303c-6.194-0.977-14.157-14.225-14.118-23.019c0.088-15.193,7.474-22.999,22.637-22.921
				c0,0,11.04,0.772,14.763,1.563l24.728,5.12c14.118,2.97,23.243,16.814,20.273,30.962c-1.798,8.715-9.497,24.513-10.171,26.712
				c-2.97,9.653-10.581,25.969-13.434,38.494c-1.798,7.875-4.68,24.973-6.165,33.815c-3.205,19.267-18.514,32.769-34.244,30.121
				c-15.73-2.618-21.504-11.675-18.983-34.196C131.9,139.821,150.932,144.169,158.739,128.429z M158.397,16.746
				C158.455,7.523,153.385,0.039,147.102,0c-6.292-0.039-11.421,7.416-11.47,16.629c-0.049,9.213,5.022,16.717,11.304,16.746
				C153.219,33.395,158.358,25.94,158.397,16.746z M193.296,27.679c1.309-5.432-0.635-10.571-4.357-11.48
				c-3.732-0.879-7.787,2.814-9.145,8.246c-1.309,5.442,0.635,10.581,4.387,11.48C187.912,36.834,191.957,33.121,193.296,27.679z
				 M177.497,21.26c0.977-6.487-1.847-12.262-6.292-12.945c-4.406-0.625-8.774,4.074-9.751,10.542
				c-0.977,6.497,1.837,12.291,6.302,12.926C172.173,32.437,176.501,27.738,177.497,21.26z M211.478,50.981
				c2.472,0.977,5.667-1.143,7.122-4.758c1.446-3.615,0.625-7.357-1.866-8.353c-2.462-0.987-5.637,1.124-7.093,4.768
				C208.176,46.242,209.016,49.975,211.478,50.981z M208.117,36.589c1.827-4.572,0.791-9.34-2.364-10.581
				c-3.087-1.29-7.142,1.417-9.008,6.028c-1.837,4.582-0.811,9.34,2.335,10.591S206.251,41.191,208.117,36.589z M158.739,128.429
				c7.816-15.808,7.728-28.246,7.347-30.903c-0.674-4.924-3.674-13.952-9.712-13.981c-4.211-0.02-6.927,0.674-13.141-0.303
				c-6.194-0.977-14.157-14.225-14.118-23.019c0.088-15.193,7.474-22.999,22.637-22.921c0,0,11.04,0.772,14.763,1.563l24.728,5.12
				c14.118,2.97,23.243,16.814,20.273,30.962c-1.798,8.715-9.497,24.513-10.171,26.712c-2.97,9.653-10.581,25.969-13.434,38.494
				c-1.798,7.875-4.68,24.973-6.165,33.815c-3.205,19.267-18.514,32.769-34.244,30.121c-15.73-2.618-21.504-11.675-18.983-34.196
				C131.9,139.821,150.932,144.169,158.739,128.429z M158.397,16.746C158.455,7.523,153.385,0.039,147.102,0
				c-6.292-0.039-11.421,7.416-11.47,16.629c-0.049,9.213,5.022,16.717,11.304,16.746C153.219,33.395,158.358,25.94,158.397,16.746z
				 M193.296,27.679c1.309-5.432-0.635-10.571-4.357-11.48c-3.732-0.879-7.787,2.814-9.145,8.246
				c-1.309,5.442,0.635,10.581,4.387,11.48C187.912,36.834,191.957,33.121,193.296,27.679z M177.497,21.26
				c0.977-6.487-1.847-12.262-6.292-12.945c-4.406-0.625-8.774,4.074-9.751,10.542c-0.977,6.497,1.837,12.291,6.302,12.926
				C172.173,32.437,176.501,27.738,177.497,21.26z M211.478,50.981c2.472,0.977,5.667-1.143,7.122-4.758
				c1.446-3.615,0.625-7.357-1.866-8.353c-2.462-0.987-5.637,1.124-7.093,4.768C208.176,46.242,209.016,49.975,211.478,50.981z
				 M208.117,36.589c1.827-4.572,0.791-9.34-2.364-10.581c-3.087-1.29-7.142,1.417-9.008,6.028
				c-1.837,4.582-0.811,9.34,2.335,10.591S206.251,41.191,208.117,36.589z"/>
		</g>
	</g>
</g>
<g>
</g>
<g>
</g>
<g>
</g>
<g>
</g>
<g>
</g>
<g>
</g>
<g>
</g>
<g>
</g>
<g>
</g>
<g>
</g>
<g>
</g>
<g>
</g>
<g>
</g>
<g>
</g>
<g>
</g>
</svg>
