<?xml version="1.0" encoding="iso-8859-1"?>
<!-- Generator: Adobe Illustrator 18.0.0, SVG Export Plug-In . SVG Version: 6.00 Build 0)  -->
<!DOCTYPE svg PUBLIC "-//W3C//DTD SVG 1.1//EN" "http://www.w3.org/Graphics/SVG/1.1/DTD/svg11.dtd">
<svg version="1.1" id="Capa_1" xmlns="http://www.w3.org/2000/svg" xmlns:xlink="http://www.w3.org/1999/xlink" x="0px" y="0px"
	 viewBox="0 0 182.293 182.293" style="enable-background:new 0 0 182.293 182.293;" xml:space="preserve">
<g>
	<path d="M174.793,83.647h-16.439c-1.199-7.543-4.179-14.497-8.488-20.427l11.645-11.645c2.929-2.929,2.929-7.678,0-10.606
		c-2.929-2.929-7.678-2.929-10.607,0l-11.645,11.645c-5.93-4.31-12.884-7.289-20.427-8.488V27.685c0-4.142-3.358-7.5-7.5-7.5
		c-4.142,0-7.5,3.358-7.5,7.5V43.53H78.463V27.685c0-4.142-3.358-7.5-7.5-7.5c-4.142,0-7.5,3.358-7.5,7.5v16.441
		c-7.543,1.199-14.497,4.179-20.428,8.488L31.392,40.969c-2.929-2.928-7.677-2.929-10.607,0c-2.929,2.929-2.929,7.678,0,10.607
		l11.644,11.645c-4.31,5.93-7.29,12.884-8.489,20.427H7.5c-4.142,0-7.5,3.358-7.5,7.5s3.358,7.5,7.5,7.5h16.44
		c1.199,7.543,4.179,14.497,8.489,20.427l-11.643,11.643c-2.929,2.929-2.929,7.678,0,10.606c1.464,1.464,3.384,2.197,5.303,2.197
		s3.839-0.732,5.303-2.197l11.644-11.643c5.93,4.31,12.885,7.29,20.428,8.489v16.439c0,4.142,3.358,7.5,7.5,7.5
		c4.142,0,7.5-3.358,7.5-7.5v-15.844h25.369v15.844c0,4.142,3.358,7.5,7.5,7.5c4.142,0,7.5-3.358,7.5-7.5v-16.439
		c7.543-1.199,14.497-4.179,20.427-8.488l11.645,11.644c1.465,1.464,3.384,2.196,5.303,2.196c1.919,0,3.839-0.732,5.304-2.197
		c2.929-2.929,2.928-7.678-0.001-10.607l-11.645-11.643c4.309-5.93,7.289-12.883,8.488-20.426h16.439c4.142,0,7.5-3.358,7.5-7.5
		S178.935,83.647,174.793,83.647z M111.332,123.765H70.963c-17.986,0-32.619-14.632-32.619-32.617
		c0-17.985,14.633-32.617,32.619-32.617h40.369c17.985,0,32.617,14.632,32.617,32.617
		C143.949,109.133,129.317,123.765,111.332,123.765z"/>
	<circle cx="116.99" cy="91.147" r="8.848"/>
	<circle cx="94.303" cy="104.245" r="8.848"/>
	<circle cx="65.303" cy="91.146" r="8.848"/>
	<circle cx="87.99" cy="78.048" r="8.848"/>
</g>
<g>
</g>
<g>
</g>
<g>
</g>
<g>
</g>
<g>
</g>
<g>
</g>
<g>
</g>
<g>
</g>
<g>
</g>
<g>
</g>
<g>
</g>
<g>
</g>
<g>
</g>
<g>
</g>
<g>
</g>
</svg>
